<?xml version="1.0" encoding="UTF-8" standalone="no"?>
<svg xmlns:rdf="http://www.w3.org/1999/02/22-rdf-syntax-ns#" xmlns="http://www.w3.org/2000/svg" height="400" width="400" version="1.1" xmlns:cc="http://creativecommons.org/ns#" xmlns:dc="http://purl.org/dc/elements/1.1/" viewBox="0 0 400 400">
<path style="opacity:.30;color-rendering:auto;text-decoration-color:#000000;color:#000000;isolation:auto;mix-blend-mode:normal;fill-rule:evenodd;shape-rendering:auto;solid-color:#000000;block-progression:tb;text-decoration-line:none;image-rendering:auto;white-space:normal;text-indent:0;text-transform:none;text-decoration-style:solid;fill:#ffffff" d="m201.86 30.025c-12.986-0.34497-25.812 2.9302-37.043 9.459l-86 50c-21.557 12.536-34.819 35.586-34.82 60.516v100c0.0014 24.932 13.263 47.983 34.816 60.516l86 50c21.752 12.645 48.616 12.645 70.367 0l86-50c21.55-12.54 34.81-35.59 34.81-60.52v-100c-0.001-24.932-13.263-47.983-34.816-60.516l-86-50c-10.14-5.8948-21.599-9.1474-33.324-9.459z"/>
<path style="opacity:.60;fill:#ffffff;fill-rule:evenodd" d="m137.8 117.34-1.375 11.945c3.6375-0.26655 6.9624-1.484 10.064-3.7188l-8.6894-8.2266zm10.158 9.6211c-3.5777 2.6345-7.5112 4.0672-11.764 4.3281l-2.0859 18.133 0.54492 0.51367 6.666 6.3125 1.0488-9.1211c0.0942-0.81875 1.0832-1.178 1.6816-0.61133l6.666 6.3106 1.0488-9.1191c0.0942-0.81876 1.0832-1.178 1.6816-0.61133l6.666 6.3106 1.0488-9.1191 0.0879-0.74414-13.291-12.582zm14.963 15.541-1.0508 9.1211c-0.0942 0.81875-1.0812 1.178-1.6797 0.61133l-6.666-6.3125-1.0508 9.1211c-0.0942 0.81875-1.0832 1.178-1.6816 0.61132l-6.666-6.3105-1.0488 9.1191c-0.0942 0.81876-1.0832 1.178-1.6816 0.61132l-6.666-6.3105 11.645 30.232h31.285l-14.738-40.494z"/>
<path style="color-rendering:auto;text-decoration-color:#000000;color:#000000;isolation:auto;mix-blend-mode:normal;fill-rule:evenodd;shape-rendering:auto;solid-color:#000000;block-progression:tb;text-decoration-line:none;image-rendering:auto;white-space:normal;text-indent:0;text-transform:none;text-decoration-style:solid;fill:#ffffff" d="m131.88 183c-1.04 0-1.88 0.84-1.88 1.88v16.24c0 1.04 0.84 1.88 1.88 1.88h9.12v68.56c0 15.71 12.73 28.44 28.44 28.44h59.79c15.7 0 28.43-12.73 28.44-28.44 0.1-25.23 0.02-46.18 0-68.56h10.45c1.04 0 1.88-0.84 1.88-1.88v-16.24c0-1.04-0.84-1.88-1.88-1.88h-58.72v12.29c0.1 6.76-10.1 6.76-10 0v-4.7c0.1 6.76-10.1 6.76-10 0v15.99c0.1 6.77-10.1 6.77-10 0v-23.58h-47.52zm42.86 35.17c6.87 0.05 13.81 0.54 20.56 1.35 1.26 0.15 2.2 1.22 2.2 2.49 0 0.64-0.02 1.31-0.04 1.99h3.83c0.01-0.69 0-1.39 0.01-2.04 0.02-1.22 0.91-2.24 2.12-2.43 6.45-1 13.25-1.4 20.12-1.36 6.87 0.05 13.81 0.54 20.56 1.35 1.26 0.15 2.2 1.22 2.2 2.49-0.01 4.72-0.7 10.68-1.68 15.89-0.49 2.61-1.06 5.01-1.68 7-0.61 1.99-1.06 3.48-2.32 4.81-0.11 0.12-0.22 0.22-0.35 0.31-1.94 1.41-4.44 2.11-7.33 2.62-2.9 0.52-6.17 0.76-9.43 0.76-3.26-0.01-6.49-0.25-9.3-0.78-2.81-0.52-5.18-1.17-7.01-2.7l-0.03-0.03c-3.3-2.85-4.39-7.59-5.11-12.72-0.29-2.02-0.45-4.1-0.57-6.17h-4.62c-0.28 2.34-0.63 4.69-1.05 6.9-0.49 2.61-1.06 5.01-1.68 7s-1.06 3.48-2.32 4.81c-0.11 0.12-0.22 0.22-0.35 0.31-1.94 1.41-4.44 2.11-7.33 2.62-2.9 0.52-6.18 0.76-9.43 0.76-3.26-0.01-6.49-0.25-9.3-0.78-2.81-0.52-5.18-1.17-7.01-2.7l-0.03-0.03c-3.3-2.85-4.39-7.59-5.11-12.72-0.73-5.12-0.83-10.73-0.76-15.21 0.02-1.22 0.91-2.24 2.12-2.43 6.45-1 13.25-1.4 20.12-1.36zm-0.04 5.01c-5.9-0.04-11.66 0.33-17.17 1.06-0.01 3.91 0.12 8.28 0.68 12.23 0.66 4.67 2.13 8.5 3.41 9.62 0.48 0.39 2.31 1.18 4.7 1.62 2.41 0.45 5.39 0.68 8.39 0.69 3 0 6.03-0.23 8.55-0.68 2.34-0.42 4.15-1.09 4.99-1.61 0.01-0.06 0.62-1.09 1.12-2.69 0.53-1.72 1.07-3.98 1.53-6.45 0.79-4.15 1.29-8.77 1.46-12.71-5.85-0.62-11.79-1.04-17.66-1.08zm48.8 0c-5.9-0.04-11.66 0.33-17.17 1.06 0 3.91 0.12 8.28 0.68 12.23 0.66 4.67 2.13 8.5 3.42 9.62 0.47 0.39 2.3 1.18 4.69 1.62 2.41 0.45 5.39 0.68 8.39 0.69 3 0 6.03-0.23 8.55-0.68 2.34-0.42 4.15-1.09 4.99-1.61 0.01-0.06 0.62-1.09 1.12-2.69 0.53-1.72 1.07-3.98 1.54-6.45 0.78-4.15 1.28-8.77 1.45-12.71-5.85-0.62-11.79-1.04-17.66-1.08zm-48 5.82c3.84 0 7 3.16 7 7s-3.16 7-7 7-7-3.16-7-7 3.16-7 7-7zm46.7 0c3.84 0 7 3.16 7 7s-3.16 7-7 7-7-3.16-7-7 3.16-7 7-7zm-13.89 25.98c2.18 0.09 3.53 2.42 2.54 4.36-2 4.15-6.25 6.75-10.88 6.75s-8.89-2.6-10.88-6.75c-1.02-2.03 0.51-4.42 2.79-4.34 1.13 0.04 2.14 0.72 2.61 1.74 0.97 2.01 3.09 3.35 5.48 3.35 2.38 0 4.5-1.34 5.47-3.35 0.51-1.12 1.64-1.82 2.87-1.76z"/>
<path style="opacity:.60;fill:#ffffff;fill-rule:evenodd" d="m264.13 105.61c-18.355-0.0448-41.422 20.614-25.963 41.488-0.005 0.008-0.009 0.0157-0.0137 0.0234 4.436 1.8348 9.2973 3.1937 13.838 4.123 0.0003-0.0344 0.002-0.0712 0.002-0.10547 18.527-4.1805 8.7973-18.052 13.152-28.135 2.8311-6.2065 11.809-5.9417 17.559-0.0293-0.47716-10.931-9.61-17.343-18.574-17.365zm18.562 23.396c-2.3199 4.5713-5.5533 14.468 0 14.453 5.898 0.01 2.5187-9.9033 0-14.453zm-48.205 24.699c-12.686 24.188-14.11 31.827-18.344 61.686l25.444-0.0413c3.9086-14.857 7.9869-31.995 10.035-56.684-5.3145-0.96672-11.627-2.6909-17.135-4.9609zm2.8984 6.5215c1.7139 0.0474 2.8726 1.7666 2.2734 3.373-5.5145 15.461-11.812 31.057-13.215 44.547-0.28511 3.3882-5.3914 2.8567-4.9727-0.51758 1.5181-14.603 8.0158-30.393 13.479-45.709 0.35316-1.0371 1.3404-1.7235 2.4355-1.6934z"/>
<path style="opacity:.60;color-rendering:auto;text-decoration-color:#000000;color:#000000;isolation:auto;mix-blend-mode:normal;fill-rule:evenodd;shape-rendering:auto;solid-color:#000000;block-progression:tb;text-decoration-line:none;image-rendering:auto;white-space:normal;text-indent:0;text-transform:none;text-decoration-style:solid;fill:#ffffff" d="m179.4 183v23.584c-0.0956 6.7616 10.096 6.7616 10 0v-15.996c-0.0956 6.7616 10.096 6.7616 10 0v4.7012c-0.0956 6.7616 10.096 6.7616 10 0v-12.289z"/>
</svg>
