<?xml version="1.0" encoding="UTF-8" standalone="no"?>
<svg
   xmlns:dc="http://purl.org/dc/elements/1.1/"
   xmlns:cc="http://creativecommons.org/ns#"
   xmlns:rdf="http://www.w3.org/1999/02/22-rdf-syntax-ns#"
   xmlns:svg="http://www.w3.org/2000/svg"
   xmlns="http://www.w3.org/2000/svg"
   xmlns:sodipodi="http://sodipodi.sourceforge.net/DTD/sodipodi-0.dtd"
   xmlns:inkscape="http://www.inkscape.org/namespaces/inkscape"
   height="400"
   width="400"
   version="1.1"
   viewBox="0 0 400 400"
   id="svg2"
   inkscape:version="0.91 r13725"
   sodipodi:docname="logo2.svg">
  <metadata
     id="metadata18">
    <rdf:RDF>
      <cc:Work
         rdf:about="">
        <dc:format>image/svg+xml</dc:format>
        <dc:type
           rdf:resource="http://purl.org/dc/dcmitype/StillImage" />
        <dc:title></dc:title>
      </cc:Work>
    </rdf:RDF>
  </metadata>
  <defs
     id="defs16" />
  <sodipodi:namedview
     pagecolor="#f5ebdf"
     bordercolor="#666666"
     borderopacity="1"
     objecttolerance="10"
     gridtolerance="10"
     guidetolerance="10"
     inkscape:pageopacity="0"
     inkscape:pageshadow="2"
     inkscape:window-width="1399"
     inkscape:window-height="856"
     id="namedview14"
     showgrid="false"
     inkscape:zoom="1.6314229"
     inkscape:cx="200"
     inkscape:cy="200"
     inkscape:window-x="41"
     inkscape:window-y="150"
     inkscape:window-maximized="1"
     inkscape:current-layer="svg2" />
  <g
     id="g4263">
    <path
       style="fill:#6ec9c8;fill-rule:evenodd;stroke:none;stroke-width:1px;stroke-linecap:butt;stroke-linejoin:miter;stroke-opacity:1;fill-opacity:1"
       d="m 130.50706,198.66615 8.82433,0.69665 0.46443,52.71371 0.92888,25.07965 6.26991,12.53983 9.98542,7.431 14.62979,3.48329 61.30581,0 13.4687,-4.41216 10.68208,-13.4687 2.55441,-19.97083 0,-61.77025 8.35988,-0.69666 2.55441,-6.26991 -0.92888,-13.23648 -138.17029,0.23222 -2.08997,4.87659 z"
       id="path4278"
       inkscape:connector-curvature="0" />
    <path
       style="fill:#4b9594"
       d="m 158.60556,299.91362 79.18667,0.92888 13.00426,-8.35989 8.59211,-16.25532 0.3002,-74.26158 -6.6313,0.2799 c -0.12793,87.50723 -10.20283,97.61367 -94.45194,97.66801 z"
       id="path4281"
       inkscape:connector-curvature="0"
       sodipodi:nodetypes="ccccccc" />
    <path
       style="fill:#f59231;fill-rule:evenodd;stroke:none;stroke-width:1px;stroke-linecap:butt;stroke-linejoin:miter;stroke-opacity:1;fill-opacity:1"
       d="m 238.09524,147.29064 13.46469,3.94089 10.18063,-3.94089 1.80624,-8.37438 0.98522,-13.13629 2.62726,-5.91133 8.04597,-1.47784 6.07554,3.28408 -2.13465,-9.19541 -9.85222,-7.22495 -12.15106,0.3284 -13.95731,6.73235 -8.53859,11.65846 -1.64203,10.01642 z"
       id="path4269"
       inkscape:connector-curvature="0" />
    <path
       style="fill:#cb4846;fill-rule:evenodd;stroke:none;stroke-width:1px;stroke-linecap:butt;stroke-linejoin:miter;stroke-opacity:1;fill-opacity:1"
       d="m 223.15271,179.96716 26.43678,0.98522 2.13465,-21.51067 -16.42036,-5.91133 -7.88178,13.7931 z"
       id="path4285"
       inkscape:connector-curvature="0" />
    <path
       style="fill:#f5a754;fill-opacity:1;fill-rule:evenodd;stroke:none;stroke-width:1px;stroke-linecap:butt;stroke-linejoin:miter;stroke-opacity:1"
       d="m 234.97537,143.34975 13.6289,8.53859 11.98686,-4.4335 2.95567,-7.88177 1.64204,-14.12151 3.44827,-7.06076 10.50904,-1.64203 c -17.06734,-7.06999 -24.51098,8.3865 -27.1584,16.36806 -2.20792,6.65655 -10.29007,12.99512 -17.01238,10.23292 z"
       id="path4272"
       inkscape:connector-curvature="0"
       sodipodi:nodetypes="cccccccsc" />
    <path
       inkscape:connector-curvature="0"
       id="path4255"
       d="m 155.17241,222.33169 19.70444,-1.80624 19.54023,1.64204 0.1642,11.16584 -4.4335,14.94253 -11.98686,2.79146 -11.49425,0.16421 -8.04598,-3.28408 -3.61248,-14.44991 z"
       style="fill:#ffffff;fill-rule:evenodd;stroke:none;stroke-width:1px;stroke-linecap:butt;stroke-linejoin:miter;stroke-opacity:1;fill-opacity:1" />
    <path
       style="fill:#4b9594"
       d="m 260,200.29168 5.89073,-0.23222 3.7155,-3.01884 -0.23222,-15.32646 -3.01884,-2.08997 L 260,179.85641 Z"
       id="path4148"
       inkscape:connector-curvature="0"
       sodipodi:nodetypes="ccccccc" />
    <path
       inkscape:connector-curvature="0"
       id="path4257"
       d="m 203.94089,222.33169 0.3284,10.50903 1.80624,9.68802 3.61248,6.40394 11.00165,2.62725 10.50903,-0.49261 6.89655,-2.79146 3.44827,-7.22496 1.80624,-12.97208 0.16421,-5.41872 -7.88178,-1.47783 -20.85385,-0.49262 z"
       style="fill:#ffffff;fill-rule:evenodd;stroke:none;stroke-width:1px;stroke-linecap:butt;stroke-linejoin:miter;stroke-opacity:1;fill-opacity:1" />
    <path
       sodipodi:nodetypes="ccccccc"
       inkscape:connector-curvature="0"
       id="path4259"
       d="m 215.92775,249.09688 12.47948,1.80624 10.34482,-1.64204 3.94089,-11.00164 1.38371,-16.20707 -3.35415,-0.5417 c -0.59864,15.15424 -4.92939,26.75565 -24.79475,27.58621 z"
       style="fill:#f1f1f1;fill-opacity:1;fill-rule:evenodd;stroke:none;stroke-width:1px;stroke-linecap:butt;stroke-linejoin:miter;stroke-opacity:1" />
    <path
       style="fill:#f1f1f1;fill-opacity:1;fill-rule:evenodd;stroke:none;stroke-width:1px;stroke-linecap:butt;stroke-linejoin:miter;stroke-opacity:1"
       d="m 166.83087,248.93268 12.47948,1.80624 10.34482,-1.64204 3.94089,-11.00164 1.38371,-16.20707 -3.35415,-0.5417 c -0.59864,15.15424 -4.92939,26.75565 -24.79475,27.58621 z"
       id="path4261"
       inkscape:connector-curvature="0"
       sodipodi:nodetypes="ccccccc" />
  </g>
  <g
     id="g4249"
     style="fill:#381232">
    <path
       sodipodi:nodetypes="cccccccccccsccccccccccccccccccccsccccccccccccccccccccccccccssssssssssccscccscc"
       inkscape:connector-curvature="0"
       id="rect4146"
       d="m 174.74023,218.16992 c -6.87,-0.04 -13.67109,0.35938 -20.12109,1.35938 -1.21,0.19 -2.09914,1.21164 -2.11914,2.43164 -0.07,4.48 0.0298,10.08898 0.75977,15.20898 0.72,5.13 1.80937,9.87071 5.10937,12.7207 l 0.0312,0.0293 c 1.83,1.53 4.19977,2.17922 7.00977,2.69922 2.81,0.53 6.04078,0.77125 9.30078,0.78125 3.25,0 6.52968,-0.23976 9.42968,-0.75977 2.89,-0.51 5.39008,-1.21109 7.33008,-2.62109 0.13,-0.09 0.23961,-0.18859 0.34961,-0.30859 1.26,-1.33 1.70031,-2.82055 2.32031,-4.81055 0.62001,-1.99 1.18969,-4.39 1.67969,-7 0.42,-2.21 0.76883,-4.56039 1.04883,-6.90039 l 4.62109,0 c 0.12,2.07 0.28032,4.14992 0.57032,6.16992 0.72,5.13 1.80937,9.87071 5.10937,12.7207 l 0.0293,0.0293 c 1.83,1.53 4.20172,2.17922 7.01172,2.69922 2.81,0.53 6.03883,0.77125 9.29883,0.78125 3.26,0 6.52968,-0.23976 9.42968,-0.75977 2.89,-0.50999 5.39008,-1.21109 7.33008,-2.62109 0.13,-0.09 0.23961,-0.18859 0.34961,-0.30859 1.26,-1.33 1.71031,-2.82055 2.32031,-4.81055 0.62,-1.99 1.18969,-4.39 1.67969,-7 0.98,-5.21 1.67164,-11.17062 1.68164,-15.89062 0,-1.27 -0.94117,-2.34024 -2.20117,-2.49024 -6.75,-0.81 -13.69055,-1.29961 -20.56055,-1.34961 -6.87,-0.04 -13.66914,0.35938 -20.11914,1.35938 -1.21,0.19 -2.09914,1.21164 -2.11914,2.43164 -0.01,0.65 -0.002,1.34906 -0.0117,2.03906 l -3.82812,0 c 0.02,-0.68 0.0391,-1.35023 0.0391,-1.99023 0,-1.27 -0.93922,-2.34024 -2.19922,-2.49024 -6.75,-0.81 -13.69055,-1.29961 -20.56055,-1.34961 z m -0.041,5.00977 c 5.87,0.04 11.81016,0.46008 17.66016,1.08008 -0.17,3.94 -0.66899,8.56093 -1.45899,12.71093 -0.46,2.47 -1.00125,4.72922 -1.53125,6.44922 -0.5,1.6 -1.10914,2.62945 -1.11914,2.68946 -0.84,0.52 -2.65023,1.19132 -4.99023,1.61132 -2.52,0.45 -5.54883,0.67969 -8.54883,0.67969 -3,-0.01 -5.98063,-0.23945 -8.39063,-0.68945 -2.39,-0.44 -4.22117,-1.2311 -4.70117,-1.6211 -1.28,-1.12 -2.7482,-4.94914 -3.4082,-9.61914 -0.56,-3.95 -0.69164,-8.32047 -0.68164,-12.23047 5.51,-0.73 11.26992,-1.10054 17.16992,-1.06054 z m 48.80078,0 c 5.87,0.04 11.81016,0.46008 17.66016,1.08008 -0.17,3.94 -0.66922,8.56093 -1.44922,12.71093 -0.47,2.47 -1.01102,4.72922 -1.54102,6.44922 -0.5,1.6 -1.10914,2.62945 -1.11914,2.68946 -0.84,0.52 -2.65023,1.19132 -4.99023,1.61132 -2.52,0.45 -5.55078,0.67969 -8.55078,0.67969 -3,-0.01 -5.98063,-0.23945 -8.39063,-0.68945 -2.39,-0.44 -4.21945,-1.2311 -4.68945,-1.6211 -1.29,-1.12 -2.75992,-4.94914 -3.41992,-9.61914 -0.56,-3.95 -0.67969,-8.32047 -0.67969,-12.23047 5.51,-0.73 11.26992,-1.10054 17.16992,-1.06054 z M 175.5,229 c -3.84,0 -7,3.16 -7,7 0,3.84 3.16,7 7,7 3.84,0 7,-3.16 7,-7 0,-3.84 -3.16,-7 -7,-7 z m 46.69922,0 c -3.84,0 -7,3.16 -7,7 0,3.84 3.16,7 7,7 3.84,0 7,-3.16 7,-7 0,-3.84 -3.16,-7 -7,-7 z m -13.88867,25.98047 c -1.23,-0.06 -2.3611,0.63976 -2.8711,1.75976 -0.97,2.01 -3.08875,3.34961 -5.46875,3.34961 -2.39,0 -4.51047,-1.33961 -5.48047,-3.34961 -0.47,-1.02 -1.47937,-1.70023 -2.60937,-1.74023 -2.28,-0.08 -3.81102,2.30984 -2.79102,4.33984 1.99,4.15 6.25086,6.75 10.88086,6.75 4.63,0 8.87891,-2.6 10.87891,-6.75 0.99,-1.94 -0.35906,-4.26937 -2.53906,-4.35937 z" />
    <path
       d="m 134,177 c -3.82611,0 -7,3.17389 -7,7 l 0,12 c 0,3.82611 3.17389,7 7,7 l 2.90234,0 0,67 c 0,18.23011 14.7699,33 33,33 l 60,0 c 18.23011,0 33,-14.76989 33,-33 l 0,-67 3.09766,0 c 3.82611,0 7,-3.17389 7,-7 l 0,-12 c 0,-3.82611 -3.17389,-7 -7,-7 z m 0,6 25.4,0 0,23.58398 c -0.0956,6.7616 10.096,6.7616 10,0 l 0,-15.99609 c -0.0956,6.7616 10.096,6.7616 10,0 l 0,4.70117 c -0.0956,6.7616 10.096,6.7616 10,0 L 189.4,183 266,183 c 0.60589,0 1,0.39411 1,1 l 0,12 c 0,0.60589 -0.39411,1 -1,1 l -6.34961,0 -2.74805,0 L 215,197 c -4.05697,-0.0574 -4.05697,6.05738 0,6 l 41.90234,0 0,67 c 8e-5,15.00989 -11.9901,27 -27,27 l -60,0 c -15.00989,0 -27,-11.99011 -27,-27 l 0,-67 L 153,203 c 4.05697,0.0574 4.05697,-6.05738 0,-6 l -10.09766,0 -2.17773,0 L 134,197 c -0.60589,0 -1,-0.39411 -1,-1 l 0,-12 c 0,-0.60589 0.39411,-1 1,-1 z m 65,14 c -4.05697,-0.0574 -4.05697,6.05738 0,6 l 6,0 c 4.05697,0.0574 4.05697,-6.05738 0,-6 z"
       id="path4168"
       inkscape:connector-curvature="0"
       sodipodi:nodetypes="sssscsssscssssssccccccccsssscccccsssscccccssssccccc" />
    <path
       inkscape:connector-curvature="0"
       id="path4225"
       d="m 264.13672,102.60938 c -0.24437,9.7e-4 -0.48771,0.0318 -0.72461,0.0918 -10.09368,0.22618 -20.70904,5.5965 -27.29883,13.94922 -6.63945,8.41568 -8.67351,20.44718 -0.69922,31.68359 0.51575,0.58216 0.88048,1.2641 1.5918,1.56055 4.66789,1.93071 9.69332,3.32891 14.38476,4.28906 0.89889,-0.12123 1.46062,-0.26131 2.34376,-0.5 4.3876,-1.16004 7.6919,-2.89172 9.79101,-5.33007 2.29041,-2.66057 3.10562,-5.85343 3.34766,-8.82422 0.48271,-5.92504 -0.6188,-11.46673 1.01757,-15.30078 0.91402,-1.98039 2.51675,-2.80447 4.91211,-2.78321 2.40581,0.0213 5.40348,1.20829 7.75,3.6211 1.92219,1.97673 5.26884,0.53193 5.14844,-2.22266 -0.54766,-12.54617 -11.17485,-20.20889 -21.56445,-20.23437 z m -0.0137,6 c 5.46916,0.0134 10.95369,2.76638 13.72851,7.8164 -1.64533,-0.57997 -3.32399,-0.96565 -4.99414,-0.98047 -4.22841,-0.0375 -8.52224,2.10715 -10.4414,6.31446 -0.009,0.0181 -0.0171,0.0364 -0.0254,0.0547 -2.69832,6.24783 -1.12458,12.66653 -1.49609,17.22657 -0.18575,2.28002 -0.68394,3.96723 -1.91601,5.39843 -1.18584,1.37749 -3.35113,2.6953 -7.2754,3.64453 -3.84657,-0.82901 -7.84338,-1.97408 -11.54882,-3.4375 -6.45225,-9.21117 -4.70985,-17.46029 0.66992,-24.27929 5.51055,-6.98477 15.2499,-11.77747 23.29883,-11.75781 z m 18.46484,20.9414 c -1.09152,0.0383 -2.07602,0.66668 -2.57031,1.64063 -1.3008,2.56318 -2.77059,6.28327 -3.25196,9.9082 -0.24067,1.81246 -0.31252,3.64207 0.51368,5.50781 0.82522,1.86357 3.1361,3.39513 5.41211,3.39258 2.313,0.002 4.66059,-1.44061 5.55468,-3.32812 0.89466,-1.88869 0.82849,-3.76625 0.57422,-5.59961 -0.50853,-3.66673 -2.07273,-7.39135 -3.5039,-9.97657 -0.54665,-0.98706 -1.60087,-1.58397 -2.72852,-1.54492 z m -48.12891,21.1543 c -1.10553,0.0105 -2.11569,0.62818 -2.6289,1.60742 -6.3423,12.09266 -9.93968,20.26208 -12.47656,29.08594 l 6.33398,0 c 2.24958,-7.28786 5.33813,-14.32447 10.33203,-23.99805 4.12369,1.52056 8.32073,2.71883 12.33399,3.57813 -0.68092,7.47877 -1.55488,14.20254 -2.53907,20.41992 l 6.13672,0 c 1.05825,-6.79434 1.97444,-14.21829 2.66016,-22.48438 0.1273,-1.53876 -0.93404,-2.92289 -2.45313,-3.19922 -5.10805,-0.92916 -11.2711,-2.61695 -16.52734,-4.7832 -0.37151,-0.15324 -0.77002,-0.23029 -1.17188,-0.22656 z m 4.17383,10.8164 c -0.73036,-0.0153 -1.41097,0.36882 -1.77539,1.00196 -3.73769,6.28924 -6.65533,12.56738 -7.37109,16.92773 -0.4657,2.65535 3.53899,3.31322 3.94726,0.64844 0.51344,-3.12779 3.27566,-9.49649 6.86329,-15.5332 0.80714,-1.31703 -0.11972,-3.013 -1.66407,-3.04493 z" />
    <path
       inkscape:connector-curvature="0"
       id="path4171"
       d="m 78,297.0003 c -4.056971,-0.0574 -4.056971,6.05677 0,5.9994 l 17,0 c 4.056971,0.0574 4.056971,-6.05677 0,-5.9994 z m 32,0 c -4.05697,-0.0574 -4.05697,6.05677 0,5.9994 l 178,0 c 4.05697,0.0574 4.05697,-6.05677 0,-5.9994 z m 188,0 c -4.05697,-0.0574 -4.05697,6.05677 0,5.9994 l 9,0 c 4.05697,0.0574 4.05697,-6.05677 0,-5.9994 z m 19,0 c -4.05697,-0.0574 -4.05697,6.05677 0,5.9994 l 5,0 c 4.05697,0.0574 4.05697,-6.05677 0,-5.9994 z"
       sodipodi:nodetypes="cccccccccccccccccccc" />
  </g>
</svg>
