<?xml version="1.0" encoding="UTF-8" standalone="no"?>
<!-- Created with Inkscape (http://www.inkscape.org/) -->

<svg
   xmlns:dc="http://purl.org/dc/elements/1.1/"
   xmlns:cc="http://creativecommons.org/ns#"
   xmlns:rdf="http://www.w3.org/1999/02/22-rdf-syntax-ns#"
   xmlns:svg="http://www.w3.org/2000/svg"
   xmlns="http://www.w3.org/2000/svg"
   xmlns:sodipodi="http://sodipodi.sourceforge.net/DTD/sodipodi-0.dtd"
   xmlns:inkscape="http://www.inkscape.org/namespaces/inkscape"
   width="480"
   height="250"
   viewBox="0 0 480 250"
   id="svg4282"
   version="1.1"
   inkscape:version="0.92.2 5c3e80d, 2017-08-06"
   sodipodi:docname="header.svg">
  <defs
     id="defs4284" />
  <sodipodi:namedview
     id="base"
     pagecolor="#ffffff"
     bordercolor="#666666"
     borderopacity="1.0"
     inkscape:pageopacity="0.0"
     inkscape:pageshadow="2"
     inkscape:zoom="6.6166667"
     inkscape:cx="97.509437"
     inkscape:cy="14.338642"
     inkscape:document-units="px"
     inkscape:current-layer="svg4282"
     showgrid="true"
     units="px"
     inkscape:window-width="1280"
     inkscape:window-height="755"
     inkscape:window-x="0"
     inkscape:window-y="1"
     inkscape:window-maximized="1">
    <inkscape:grid
       type="xygrid"
       id="grid4849"
       spacingx="5.0000001"
       spacingy="5"
       empspacing="1"
       dotted="false"
       snapvisiblegridlinesonly="false"
       visible="true" />
    <inkscape:grid
       type="xygrid"
       id="grid937"
       snapvisiblegridlinesonly="false"
       color="#c93f38"
       opacity="0.1254902"
       empcolor="#c93f38"
       empopacity="0.1254902"
       spacingx="2.5"
       spacingy="2.5"
       empspacing="0"
       enabled="false" />
  </sodipodi:namedview>
  <metadata
     id="metadata4287">
    <rdf:RDF>
      <cc:Work
         rdf:about="">
        <dc:format>image/svg+xml</dc:format>
        <dc:type
           rdf:resource="http://purl.org/dc/dcmitype/StillImage" />
        <dc:title></dc:title>
      </cc:Work>
    </rdf:RDF>
  </metadata>
  <g
     id="layer1"
     style="fill:#4e91e4"
     transform="translate(-480)">
    <path
       style="opacity:0.1"
       d="m 595,35 c 0,0 -10,0 -10,10 0,10 10,10 10,10 h 35 c 0,0 10,0 10,10 0,10 -10,10 -10,10 h 100 c 0,0 -10,0 -10,-10 0,-10 10,-10 10,-10 h 30 c 0,0 10,0 10,-10 0,-10 -10,-10 -10,-10 z m 220,0 c 0,0 -10,0 -10,10 0,10 10,10 10,10 h 40 c 0,0 10,0 10,-10 0,-10 -10,-10 -10,-10 z M 490,75 c 0,0 -10,0 -10,10 0,10 10,10 10,10 h 5 c 0,0 10,0 10,-10 0,-10 -10,-10 -10,-10 z m 35,0 c 0,0 -10,0 -10,10 0,10 10,10 10,10 h 35 V 85 c 0,-9.999969 10,-10 10,-10 z m 255,0 c 10,0 10,10 10,10 v 10 h 10 V 75 Z m -290,40 c 0,0 -10,0 -10,10 0,10 10,10 10,10 h 50 c 0,0 10,0 10,10 0,10 -10,10 -10,10 h -35 c 0,0 -10,0 -10,10 0,10 10,10 10,10 h 55 v -60 z m 300,0 v 20 h 10 v -20 z m 0,40 v 50 H 560 v -10 h -25 c 0,0 -10,0 -10,10 0,10 10,10 10,10 h 275 c -10,0 -10,-10 -10,-10 v -50 z m 135,0 v 20 h 15 c 0,0 10,0 10,-10 0,-10 -10,-10 -10,-10 z m 0,40 v 10 c 0,10 -10,10 -10,10 h 20 c 0,0 10,0 10,-10 0,-10 -10,-10 -10,-10 z"
       id="path925"
       inkscape:connector-curvature="0"
       sodipodi:nodetypes="csccsccsccscccsccscccsccscccsccscccccccccsccsccsccccccccccccccsccccccccscccsccscc" />
    <path
       d="m 925,75 c 0,0 5,0 5,-5 0,-5 -5,-5 -5,-5 H 800.00002 c 0,0 -5,0 -5,5 0,5 5,5 5,5 z"
       id="path834"
       inkscape:connector-curvature="0"
       sodipodi:nodetypes="csccscc"
       style="opacity:0.75" />
    <path
       d="m 915,215 c 0,0 10,0 10,-10 V 75 H 800 v 130 c 0,0 0,10 10,10 z"
       id="path831"
       inkscape:connector-curvature="0"
       sodipodi:nodetypes="cscccsc"
       style="opacity:0.5" />
    <path
       d="m 800.00002,110 h 125 v 60 h -125 z"
       id="path858"
       inkscape:connector-curvature="0"
       style="opacity:0.5" />
    <path
       d="m 810,120 v 5 h 35 v -5 z m 0,10 v 5 h 25 v -5 z m 0,10 v 5 h 50 v -5 z m 0,15 v 5 h 30 v -5 z m 35,0 v 5 h 5 v -5 z m 10,0 v 5 h 15 v -5 z"
       id="path861"
       inkscape:connector-curvature="0" />
    <path
       d="m 485,215 c 0,0 -5,0 -5,5 0,5 5,5 5,5 h 470 c 0,0 5,0 5,-5 0,-5 -5,-5 -5,-5 z"
       id="path825"
       inkscape:connector-curvature="0"
       style="opacity:0.75"
       sodipodi:nodetypes="csccscc" />
    <path
       d="m 915.00002,215 v 25 c 0,0 0,5 -5,5 -5,0 -5,-5 -5,-5 v -10 c 0,0 0,5 -5,5 -5,0 -5,-5 -5,-5 v 5 c 0,0 0,5 -5,5 -5,0 -5,-5 -5,-5 v -20 z"
       id="path818"
       inkscape:connector-curvature="0" />
    <path
       style="fill:#546778;fill-opacity:1"
       d="M 852.46289,72.464844 A 2.50025,2.50025 0 0 0 850,75 c 0,0 -0.0345,19.2709 9.63867,38.61719 9.05332,18.10662 27.02813,36.37708 60.72071,38.64453 A 7.5,7.5 0 0 0 927.5,157.5 7.5,7.5 0 0 0 935,150 a 7.5,7.5 0 0 0 -7.5,-7.5 7.5,7.5 0 0 0 -6.97656,4.76758 C 888.55751,145.1345 872.59201,128.34418 864.11133,111.38281 855.03447,93.229099 855,75 855,75 a 2.50025,2.50025 0 0 0 -2.53711,-2.535156 z"
       id="path842"
       inkscape:connector-curvature="0" />
    <path
       d="m 815,65 v 25 c 0,0 0,5 5,5 5,0 5,-5 5,-5 V 75 c 0,0 0,5 5,5 5,0 5,-5 5,-5 v 10 c 0,0 0,5 5,5 5,0 5,-5 5,-5 V 65 Z"
       id="path847"
       inkscape:connector-curvature="0"
       sodipodi:nodetypes="ccsccsccsccc" />
    <path
       d="M 795.00001,200 H 700 c 10e-6,5 10e-6,5 -4.99999,5 h -40 c -5,0 -5,0 -5.00001,-5 h -95 v 5 c 0,0 10e-6,10 10,10 h 220 c 0,0 10.00001,0 10.00001,-10 z"
       id="path875"
       inkscape:connector-curvature="0"
       style="fill:#546778;fill-opacity:1"
       sodipodi:nodetypes="cccccccscsc" />
    <path
       style="fill:#546778;fill-opacity:1;stroke:none;stroke-width:1px;stroke-linecap:butt;stroke-linejoin:miter;stroke-opacity:1"
       d="m 575.00001,85 c 0,0 -5,0 -5,5 0,5 0,100 0,100 0,0 0,5 5,5 5,0 200.00001,0 200.00001,0 0,0 5,0 5,-5 0,-5 0,-100 0,-100 0,0 0,-5 -5,-5 -5,0 -200.00001,0 -200.00001,0 z"
       id="path881"
       inkscape:connector-curvature="0" />
    <path
       d="M 560.00001,205 H 790.00002 L 790,85 c 0,0 0,-10 -10,-10 H 570 c 0,0 -10,3.1e-5 -10,10 z"
       id="path878"
       inkscape:connector-curvature="0"
       style="opacity:0.75;fill:#546778;fill-opacity:1"
       sodipodi:nodetypes="cccscsc" />
    <path
       style="opacity:0.75;fill:#ffffff"
       d="m 580,95 v 5 h 5 v -5 z m 15,0 v 5 h 55 v -5 z m -15,10 v 5 h 5 v -5 z m 15,0 v 5 h 130 v -5 z m -15,10 v 5 h 5 v -5 z m 15,0 v 5 h 20 v -5 z m -15,10 v 5 h 5 v -5 z m 15,0 v 5 h 80 v -5 z m -15,10 v 5 h 5 v -5 z m 15,0 v 5 h 85 v -5 z m -15,10 v 5 h 5 v -5 z m 15,0 v 5 h 35 v -5 z m -15,10 v 5 h 5 v -5 z m 15,0 v 5 h 145 v -5 z m -15,10 v 5 h 5 v -5 z m 15,0 v 5 h 15 v -5 z m -15,10 v 5 h 5 v -5 z m 15,0 v 5 h 105 v -5 z"
       id="path886"
       inkscape:connector-curvature="0"
       sodipodi:nodetypes="cccccccccccccccccccccccccccccccccccccccccccccccccccccccccccccccccccccccccccccccccccscccccc" />
  </g>
</svg>
